ffmpeg version 2022-04-14-git-ea84eb2db1-essentials_build-www.gyan.dev Copyright (c) 2000-2022 the FFmpeg developers
  built with gcc 11.2.0 (Rev10, Built by MSYS2 project)
  configuration: --enable-gpl --enable-version3 --enable-static --disable-w32threads --disable-autodetect --enable-fontconfig --enable-iconv --enable-gnutls --enable-libxml2 --enable-gmp --enable-bzlib --enable-lzma --enable-zlib --enable-libsrt --enable-libssh --enable-libzmq --enable-avisynth --enable-sdl2 --enable-libwebp --enable-libx264 --enable-libx265 --enable-libxvid --enable-libaom --enable-libopenjpeg --enable-libvpx --enable-mediafoundation --enable-libass --enable-libfreetype --enable-libfribidi --enable-libvidstab --enable-libvmaf --enable-libzimg --enable-amf --enable-cuda-llvm --enable-cuvid --enable-ffnvcodec --enable-nvdec --enable-nvenc --enable-d3d11va --enable-dxva2 --enable-libmfx --enable-libgme --enable-libopenmpt --enable-libopencore-amrwb --enable-libmp3lame --enable-libtheora --enable-libvo-amrwbenc --enable-libgsm --enable-libopencore-amrnb --enable-libopus --enable-libspeex --enable-libvorbis --enable-librubberband
  libavutil      57. 24.101 / 57. 24.101
  libavcodec     59. 26.100 / 59. 26.100
  libavformat    59. 22.100 / 59. 22.100
  libavdevice    59.  6.100 / 59.  6.100
  libavfilter     8. 31.100 /  8. 31.100
  libswscale      6.  6.100 /  6.  6.100
  libswresample   4.  6.100 /  4.  6.100
  libpostproc    56.  5.100 / 56.  5.100
Splitting the commandline.
Reading option '-v' ... matched as option 'v' (set logging level) with argument 'debug'.
Reading option '-nostdin' ... matched as option 'stdin' (enable or disable interaction on standard input) with argument 0.
Reading option '-progress' ... matched as option 'progress' (write program-readable progress information) with argument 'C:/Users/pedro/AppData/Local/Temp/KritaFFmpegProgress.YOyZgk'.
Reading option '-r' ... matched as option 'r' (set frame rate (Hz value, fraction or abbreviation)) with argument '5'.
Reading option '-start_number' ... matched as AVOption 'start_number' with argument '10'.
Reading option '-i' ... matched as input url with argument 'C:/Users/pedro/DEV/jump-tales/characters/robo idoso/gif/frame%04d.png'.
Reading option '-vf' ... matched as option 'vf' (set video filters) with argument 'palettegen'.
Reading option '-y' ... matched as option 'y' (overwrite output files) with argument '1'.
Reading option 'C:/Users/pedro/DEV/jump-tales/characters/robo idoso/gif/palette.png' ... matched as output url.
Finished splitting the commandline.
Parsing a group of options: global .
Applying option v (set logging level) with argument debug.
Applying option nostdin (enable or disable interaction on standard input) with argument 0.
Applying option progress (write program-readable progress information) with argument C:/Users/pedro/AppData/Local/Temp/KritaFFmpegProgress.YOyZgk.
[file @ 0000026702c7ca00] Setting default whitelist 'file,crypto,data'
Applying option y (overwrite output files) with argument 1.
Successfully parsed a group of options.
Parsing a group of options: input url C:/Users/pedro/DEV/jump-tales/characters/robo idoso/gif/frame%04d.png.
Applying option r (set frame rate (Hz value, fraction or abbreviation)) with argument 5.
Successfully parsed a group of options.
Opening an input file: C:/Users/pedro/DEV/jump-tales/characters/robo idoso/gif/frame%04d.png.
[image2 @ 0000026702cbcf00] Opening 'C:/Users/pedro/DEV/jump-tales/characters/robo idoso/gif/frame0010.png' for reading
[file @ 0000026702cc1c00] Setting default whitelist 'file,crypto,data'
[AVIOContext @ 0000026702cc9dc0] Statistics: 16573 bytes read, 0 seeks
[image2 @ 0000026702cbcf00] Opening 'C:/Users/pedro/DEV/jump-tales/characters/robo idoso/gif/frame0011.png' for reading
[file @ 0000026702cce1c0] Setting default whitelist 'file,crypto,data'
[AVIOContext @ 0000026702ce06c0] Statistics: 16502 bytes read, 0 seeks
[image2 @ 0000026702cbcf00] Opening 'C:/Users/pedro/DEV/jump-tales/characters/robo idoso/gif/frame0012.png' for reading
[file @ 0000026702cc9d80] Setting default whitelist 'file,crypto,data'
[AVIOContext @ 0000026702ce06c0] Statistics: 16588 bytes read, 0 seeks
[image2 @ 0000026702cbcf00] Opening 'C:/Users/pedro/DEV/jump-tales/characters/robo idoso/gif/frame0013.png' for reading
[file @ 0000026702cc9d80] Setting default whitelist 'file,crypto,data'
[AVIOContext @ 0000026702ce06c0] Statistics: 16532 bytes read, 0 seeks
Input #0, image2, from 'C:/Users/pedro/DEV/jump-tales/characters/robo idoso/gif/frame%04d.png':
  Duration: 00:00:00.16, start: 0.000000, bitrate: N/A
  Stream #0:0, 4, 1/25: Video: png, 1 reference frame, rgba(pc), 807x807 [SAR 11811:11811 DAR 1:1], 0/1, 25 fps, 25 tbr, 25 tbn
Successfully opened the file.
Parsing a group of options: output url C:/Users/pedro/DEV/jump-tales/characters/robo idoso/gif/palette.png.
Applying option vf (set video filters) with argument palettegen.
Successfully parsed a group of options.
Opening an output file: C:/Users/pedro/DEV/jump-tales/characters/robo idoso/gif/palette.png.
Successfully opened the file.
detected 4 logical cores
Stream mapping:
  Stream #0:0 -> #0:0 (png (native) -> png (native))
cur_dts is invalid st:0 (0) [init:0 i_done:0 finish:0] (this is harmless if it occurs once at the start per stream)
    Last message repeated 4 times
[graph 0 input from stream 0:0 @ 0000026702d1c540] Setting 'video_size' to value '807x807'
[graph 0 input from stream 0:0 @ 0000026702d1c540] Setting 'pix_fmt' to value '26'
[graph 0 input from stream 0:0 @ 0000026702d1c540] Setting 'time_base' to value '1/5'
[graph 0 input from stream 0:0 @ 0000026702d1c540] Setting 'pixel_aspect' to value '11811/11811'
[graph 0 input from stream 0:0 @ 0000026702d1c540] Setting 'frame_rate' to value '5/1'
[graph 0 input from stream 0:0 @ 0000026702d1c540] w:807 h:807 pixfmt:rgba tb:1/5 fr:5/1 sar:11811/11811
[format @ 0000026702d1df80] Setting 'pix_fmts' to value 'rgb24|rgba|rgb48be|rgba64be|pal8|gray|ya8|gray16be|ya16be|monob'
[auto_scale_0 @ 0000026702d1e780] w:iw h:ih flags:'' interl:0
[Parsed_palettegen_0 @ 0000026702d1c440] auto-inserting filter 'auto_scale_0' between the filter 'graph 0 input from stream 0:0' and the filter 'Parsed_palettegen_0'
[auto_scale_1 @ 0000026702d1f000] w:iw h:ih flags:'' interl:0
[format @ 0000026702d1df80] auto-inserting filter 'auto_scale_1' between the filter 'Parsed_palettegen_0' and the filter 'format'
[AVFilterGraph @ 0000026702d1aa40] query_formats: 4 queried, 3 merged, 2 already done, 0 delayed
[auto_scale_1 @ 0000026702d1f000] picking rgba out of 10 ref:bgra alpha:1
[swscaler @ 0000026702d20340] [swscaler @ 0000026702d30600] Forcing full internal H chroma due to odd output size
[swscaler @ 0000026702d20340] [swscaler @ 0000026702d30600] Forcing full internal H chroma due to input having non subsampled chroma
[swscaler @ 0000026702d20340] [swscaler @ 0000026704b37f80] Forcing full internal H chroma due to odd output size
[swscaler @ 0000026702d20340] [swscaler @ 0000026704b37f80] Forcing full internal H chroma due to input having non subsampled chroma
[swscaler @ 0000026702d20340] [swscaler @ 0000026704b50e40] Forcing full internal H chroma due to odd output size
[swscaler @ 0000026702d20340] [swscaler @ 0000026704b50e40] Forcing full internal H chroma due to input having non subsampled chroma
[swscaler @ 0000026702d20340] [swscaler @ 0000026704b7bcc0] Forcing full internal H chroma due to odd output size
[swscaler @ 0000026702d20340] [swscaler @ 0000026704b7bcc0] Forcing full internal H chroma due to input having non subsampled chroma
[swscaler @ 0000026702d20340] [swscaler @ 0000026704ba3280] Forcing full internal H chroma due to odd output size
[swscaler @ 0000026702d20340] [swscaler @ 0000026704ba3280] Forcing full internal H chroma due to input having non subsampled chroma
[auto_scale_0 @ 0000026702d1e780] w:807 h:807 fmt:rgba sar:11811/11811 -> w:807 h:807 fmt:bgra sar:1/1 flags:0x0
[swscaler @ 0000026704bbaf00] [swscaler @ 0000026704bc7ec0] Forcing full internal H chroma due to input having non subsampled chroma
[swscaler @ 0000026704bbaf00] [swscaler @ 0000026704bdbf00] Forcing full internal H chroma due to input having non subsampled chroma
[swscaler @ 0000026704bbaf00] [swscaler @ 0000026704beef00] Forcing full internal H chroma due to input having non subsampled chroma
[swscaler @ 0000026704bbaf00] [swscaler @ 0000026704c03f40] Forcing full internal H chroma due to input having non subsampled chroma
[swscaler @ 0000026704bbaf00] [swscaler @ 0000026704c16f80] Forcing full internal H chroma due to input having non subsampled chroma
[auto_scale_1 @ 0000026702d1f000] w:16 h:16 fmt:bgra sar:1/1 -> w:16 h:16 fmt:rgba sar:1/1 flags:0x0
[swscaler @ 0000026702d20340] [swscaler @ 0000026704ba2500] Forcing full internal H chroma due to odd output size
[swscaler @ 0000026702d20340] [swscaler @ 0000026704ba2500] Forcing full internal H chroma due to input having non subsampled chroma
[swscaler @ 0000026702d20340] [swscaler @ 0000026704b78b40] Forcing full internal H chroma due to odd output size
[swscaler @ 0000026702d20340] [swscaler @ 0000026704b78b40] Forcing full internal H chroma due to input having non subsampled chroma
[swscaler @ 0000026702d20340] [swscaler @ 0000026702d31fc0] Forcing full internal H chroma due to odd output size
[swscaler @ 0000026702d20340] [swscaler @ 0000026702d31fc0] Forcing full internal H chroma due to input having non subsampled chroma
[swscaler @ 0000026702d20340] [swscaler @ 0000026704b300c0] Forcing full internal H chroma due to odd output size
[swscaler @ 0000026702d20340] [swscaler @ 0000026704b300c0] Forcing full internal H chroma due to input having non subsampled chroma
[swscaler @ 0000026702d20340] [swscaler @ 0000026704b4d080] Forcing full internal H chroma due to odd output size
[swscaler @ 0000026702d20340] [swscaler @ 0000026704b4d080] Forcing full internal H chroma due to input having non subsampled chroma
[auto_scale_0 @ 0000026702d1e780] w:807 h:807 fmt:rgba sar:11811/11811 -> w:807 h:807 fmt:bgra sar:1/1 flags:0x0
[swscaler @ 0000026702d20340] [swscaler @ 0000026704b300c0] Forcing full internal H chroma due to odd output size
[swscaler @ 0000026702d20340] [swscaler @ 0000026704b300c0] Forcing full internal H chroma due to input having non subsampled chroma
[swscaler @ 0000026702d20340] [swscaler @ 0000026704ba2500] Forcing full internal H chroma due to odd output size
[swscaler @ 0000026702d20340] [swscaler @ 0000026704ba2500] Forcing full internal H chroma due to input having non subsampled chroma
[swscaler @ 0000026702d20340] [swscaler @ 0000026702d30600] Forcing full internal H chroma due to odd output size
[swscaler @ 0000026702d20340] [swscaler @ 0000026702d30600] Forcing full internal H chroma due to input having non subsampled chroma
[swscaler @ 0000026702d20340] [swscaler @ 0000026704b4ea40] Forcing full internal H chroma due to odd output size
[swscaler @ 0000026702d20340] [swscaler @ 0000026704b4ea40] Forcing full internal H chroma due to input having non subsampled chroma
[swscaler @ 0000026702d20340] [swscaler @ 0000026704b78b40] Forcing full internal H chroma due to odd output size
[swscaler @ 0000026702d20340] [swscaler @ 0000026704b78b40] Forcing full internal H chroma due to input having non subsampled chroma
[auto_scale_0 @ 0000026702d1e780] w:807 h:807 fmt:rgba sar:11811/11811 -> w:807 h:807 fmt:bgra sar:1/1 flags:0x0
[swscaler @ 0000026702d20340] [swscaler @ 0000026704b300c0] Forcing full internal H chroma due to odd output size
[swscaler @ 0000026702d20340] [swscaler @ 0000026704b300c0] Forcing full internal H chroma due to input having non subsampled chroma
[swscaler @ 0000026702d20340] [swscaler @ 0000026704ba2500] Forcing full internal H chroma due to odd output size
[swscaler @ 0000026702d20340] [swscaler @ 0000026704ba2500] Forcing full internal H chroma due to input having non subsampled chroma
[swscaler @ 0000026702d20340] [swscaler @ 0000026702d30600] Forcing full internal H chroma due to odd output size
[swscaler @ 0000026702d20340] [swscaler @ 0000026702d30600] Forcing full internal H chroma due to input having non subsampled chroma
[swscaler @ 0000026702d20340] [swscaler @ 0000026704b4ea40] Forcing full internal H chroma due to odd output size
[swscaler @ 0000026702d20340] [swscaler @ 0000026704b4ea40] Forcing full internal H chroma due to input having non subsampled chroma
[swscaler @ 0000026702d20340] [swscaler @ 0000026704b78b40] Forcing full internal H chroma due to odd output size
[swscaler @ 0000026702d20340] [swscaler @ 0000026704b78b40] Forcing full internal H chroma due to input having non subsampled chroma
[auto_scale_0 @ 0000026702d1e780] w:807 h:807 fmt:rgba sar:11811/11811 -> w:807 h:807 fmt:bgra sar:1/1 flags:0x0
cur_dts is invalid st:0 (0) [init:0 i_done:0 finish:0] (this is harmless if it occurs once at the start per stream)
    Last message repeated 3 times
[Parsed_palettegen_0 @ 0000026702d1c440] 10(+1) colors generated out of 10 colors; ratio=1.000000
cur_dts is invalid st:0 (0) [init:0 i_done:0 finish:0] (this is harmless if it occurs once at the start per stream)
Output #0, image2, to 'C:/Users/pedro/DEV/jump-tales/characters/robo idoso/gif/palette.png':
  Metadata:
    encoder         : Lavf59.22.100
  Stream #0:0, 0, 1/5: Video: png, 1 reference frame, rgba(pc, gbr/unknown/unknown, progressive), 16x16 (0x0) [SAR 1:1 DAR 1:1], 0/1, q=2-31, 200 kb/s, 5 fps, 5 tbn
    Metadata:
      encoder         : Lavc59.26.100 png
Clipping frame in rate conversion by 0.000008
frame=    1 fps=0.0 q=0.0 size=N/A time=00:00:00.00 bitrate=N/A speed=   0x    cur_dts is invalid st:0 (0) [init:1 i_done:0 finish:0] (this is harmless if it occurs once at the start per stream)
[out_0_0 @ 0000026702d1de80] EOF on sink link out_0_0:default.
No more output streams to write to, finishing.
[image2 @ 0000026702cc7ac0] Opening 'C:/Users/pedro/DEV/jump-tales/characters/robo idoso/gif/palette.png' for writing
[file @ 00000267014a8b80] Setting default whitelist 'file,crypto,data'
[AVIOContext @ 0000026704b76980] Statistics: 147 bytes written, 0 seeks, 1 writeouts
frame=    1 fps=0.0 q=-0.0 Lsize=N/A time=00:00:00.20 bitrate=N/A speed=4.27x    
[AVIOContext @ 0000026702cbcc00] Statistics: 348 bytes written, 0 seeks, 2 writeouts
video:0kB audio:0kB subtitle:0kB other streams:0kB global headers:0kB muxing overhead: unknown
Input file #0 (C:/Users/pedro/DEV/jump-tales/characters/robo idoso/gif/frame%04d.png):
  Input stream #0:0 (video): 4 packets read (66195 bytes); 4 frames decoded; 
  Total: 4 packets (66195 bytes) demuxed
Output file #0 (C:/Users/pedro/DEV/jump-tales/characters/robo idoso/gif/palette.png):
  Output stream #0:0 (video): 1 frames encoded; 1 packets muxed (147 bytes); 
  Total: 1 packets (147 bytes) muxed
4 frames successfully decoded, 0 decoding errors
